<?xml version="1.0" standalone="no"?>
<!DOCTYPE svg PUBLIC "-//W3C//DTD SVG 20010904//EN"
 "http://www.w3.org/TR/2001/REC-SVG-20010904/DTD/svg10.dtd">
<svg version="1.0" xmlns="http://www.w3.org/2000/svg"
 width="1370.000000pt" height="1370.000000pt" viewBox="0 0 1370.000000 1370.000000"
 preserveAspectRatio="xMidYMid meet">
<metadata>
Created by potrace 1.14, written by Peter Selinger 2001-2017
</metadata>
<g transform="translate(0.000000,1370.000000) scale(0.100000,-0.100000)"
fill="#000000" stroke="none">
<path d="M1142 12213 c1 -17 -10 -195 -18 -288 -1 -22 -6 -89 -9 -150 -3 -60
-8 -130 -10 -155 -2 -25 -7 -91 -10 -148 -4 -57 -8 -122 -10 -145 -2 -23 -6
-91 -10 -152 -3 -60 -8 -130 -10 -155 -2 -25 -6 -92 -10 -150 -3 -58 -8 -125
-10 -150 -2 -25 -7 -90 -10 -145 -3 -55 -8 -127 -10 -160 -3 -33 -7 -103 -10
-155 -4 -52 -8 -120 -10 -150 -3 -30 -7 -97 -10 -150 -3 -52 -8 -113 -10 -135
-2 -22 -6 -94 -10 -160 -4 -66 -8 -136 -10 -155 -2 -19 -6 -87 -10 -150 -3
-63 -8 -135 -10 -160 -3 -25 -7 -81 -10 -125 -22 -358 -27 -420 -40 -560 -2
-16 -6 -70 -10 -120 -3 -49 -8 -101 -10 -115 -2 -14 -7 -68 -10 -120 -3 -52
-8 -102 -10 -110 -2 -8 -7 -55 -10 -105 -3 -49 -8 -101 -10 -115 -2 -14 -6
-65 -10 -115 -3 -49 -8 -103 -10 -120 -4 -30 -10 -102 -20 -225 -3 -36 -8 -92
-11 -125 -8 -95 -12 -145 -19 -225 -4 -41 -8 -88 -10 -105 -4 -28 -14 -145
-20 -225 -2 -34 -13 -157 -20 -230 -2 -19 -6 -75 -10 -125 -3 -49 -8 -101 -10
-115 -2 -14 -6 -59 -10 -100 -4 -41 -8 -95 -11 -120 -2 -25 -6 -74 -9 -110 -5
-64 -11 -133 -21 -241 -3 -31 -7 -78 -9 -105 -8 -89 -26 -288 -30 -334 -3 -25
-7 -70 -9 -100 -9 -110 -17 -206 -21 -250 -3 -25 -7 -76 -10 -115 -3 -38 -8
-88 -10 -110 -2 -22 -7 -74 -10 -115 -4 -41 -8 -93 -11 -115 -2 -22 -6 -71 -9
-110 -3 -38 -7 -90 -10 -115 -5 -56 -15 -165 -20 -233 -5 -65 -14 -168 -20
-227 -2 -25 -7 -74 -10 -110 -3 -36 -7 -85 -10 -110 -2 -25 -7 -76 -10 -115
-5 -60 -25 -240 -40 -355 -9 -69 -14 -116 -20 -170 -3 -30 -8 -62 -10 -70 -2
-8 -6 -46 -10 -83 -3 -37 -8 -76 -10 -86 -2 -9 -6 -51 -10 -92 -4 -40 -8 -76
-10 -79 -1 -3 -6 -36 -10 -75 -4 -38 -8 -72 -10 -75 -1 -3 -6 -41 -10 -85 -3
-43 -8 -82 -10 -85 -1 -3 -6 -39 -10 -80 -4 -41 -8 -77 -10 -80 -1 -3 -6 -34
-9 -70 -4 -36 -10 -91 -15 -122 l-8 -57 471 6 c584 8 1187 8 1804 0 l472 -6 1
122 c0 67 2 169 4 227 1 58 6 233 10 390 4 157 8 308 10 335 1 28 6 102 9 165
7 115 11 182 20 336 3 45 8 128 11 185 3 57 7 136 10 174 3 39 7 115 10 170 3
55 7 132 10 170 3 39 7 115 10 170 3 55 8 129 10 165 3 36 7 110 10 165 7 129
18 330 30 520 3 44 7 121 10 170 3 50 7 126 10 170 3 44 7 121 10 170 3 50 8
126 10 170 3 44 7 118 10 165 9 158 14 245 20 355 3 61 7 135 10 165 3 30 7
107 10 170 3 63 7 140 9 170 3 30 7 105 11 165 7 121 13 213 20 290 9 95 15
160 20 225 3 36 7 85 10 110 3 25 7 72 10 105 3 33 7 83 10 110 3 28 9 104 15
170 6 66 12 138 15 160 2 22 7 72 10 110 3 39 8 90 10 115 3 25 14 144 25 265
11 121 23 245 26 275 9 91 12 131 19 215 11 137 18 161 29 98 9 -57 15 -93 26
-148 12 -62 19 -100 26 -145 5 -28 33 -179 67 -360 3 -14 11 -47 17 -75 6 -27
14 -61 16 -75 3 -14 9 -41 14 -60 5 -19 11 -46 14 -60 2 -14 55 -227 116 -475
61 -247 145 -587 186 -755 41 -168 77 -316 81 -330 3 -14 7 -30 9 -36 2 -12
15 -64 104 -424 28 -113 54 -216 56 -230 3 -13 14 -60 24 -105 10 -45 21 -92
24 -105 3 -14 12 -54 20 -90 8 -36 21 -94 29 -130 79 -352 124 -550 167 -745
29 -126 53 -237 55 -245 9 -42 158 -707 255 -1135 33 -148 78 -349 99 -445 22
-96 69 -308 105 -470 37 -162 68 -304 70 -315 2 -11 11 -51 20 -90 9 -38 19
-79 22 -90 12 -54 36 -163 40 -185 2 -14 8 -39 12 -55 l8 -30 275 3 c336 3
1970 3 2317 -1 l253 -2 138 415 c76 228 288 867 471 1420 183 553 429 1295
547 1650 118 355 215 650 217 655 1 6 30 93 63 195 34 102 81 248 106 325 103
320 233 722 287 890 32 99 106 326 163 505 194 600 325 1003 396 1220 70 215
70 215 71 155 1 -33 4 -116 6 -185 12 -354 7 -1159 -11 -1695 -4 -116 -10
-321 -20 -660 -2 -88 -7 -232 -10 -320 -3 -88 -8 -223 -10 -300 -3 -77 -7
-201 -10 -275 -2 -74 -7 -209 -10 -300 -3 -91 -7 -219 -10 -285 -3 -66 -7
-192 -10 -280 -3 -88 -8 -212 -10 -275 -3 -63 -7 -182 -10 -265 -3 -82 -7
-199 -10 -260 -3 -60 -7 -173 -10 -250 -3 -77 -7 -185 -10 -240 -3 -55 -7
-158 -10 -230 -9 -213 -19 -441 -40 -846 -3 -52 -7 -126 -10 -165 -2 -38 -7
-123 -11 -189 -3 -66 -7 -136 -9 -155 -2 -19 -7 -82 -10 -140 -4 -57 -9 -108
-11 -112 -3 -4 190 -5 428 -1 567 8 1396 8 1984 0 l471 -7 -6 83 c-2 45 -5
519 -5 1052 0 865 3 1139 19 1915 3 113 7 320 10 460 7 346 13 604 20 855 3
116 8 291 10 390 5 198 13 532 20 780 5 166 12 458 20 750 5 197 13 441 20
640 3 77 7 210 10 295 3 85 7 205 10 265 3 61 7 173 10 250 6 142 10 253 20
470 3 66 8 172 10 235 3 63 7 158 10 210 3 52 7 145 10 205 7 167 22 473 30
610 3 50 7 142 10 205 3 63 8 144 10 180 4 59 9 163 20 350 2 36 6 120 10 188
l7 123 -608 -7 c-792 -9 -2355 -9 -3136 0 -340 4 -618 5 -618 2 0 -6 -12 -52
-70 -261 -23 -82 -43 -157 -45 -165 -49 -185 -214 -709 -290 -920 -9 -25 -38
-106 -65 -180 -78 -218 -150 -413 -159 -435 -5 -11 -71 -186 -146 -390 -75
-203 -141 -379 -145 -390 -5 -11 -17 -40 -25 -65 -20 -58 -50 -139 -119 -330
-267 -731 -534 -1547 -772 -2360 -86 -290 -206 -705 -209 -720 -3 -13 -20 -74
-71 -250 -9 -30 -17 -59 -19 -65 -5 -17 -13 15 -45 180 -17 88 -33 171 -35
185 -3 14 -7 39 -10 55 -3 17 -8 41 -10 55 -12 59 -15 77 -20 105 -3 17 -8 44
-12 60 -3 17 -7 37 -8 45 -3 21 -72 375 -95 485 -10 50 -22 106 -25 125 -3 19
-32 168 -65 330 -32 162 -61 306 -64 320 -13 68 -49 232 -61 285 -8 33 -16 71
-19 85 -10 55 -37 175 -86 380 -28 118 -53 222 -55 230 -2 8 -20 80 -40 160
-20 80 -38 152 -40 161 -6 29 -46 182 -60 234 -8 28 -33 122 -56 210 -44 172
-88 337 -112 425 -43 156 -62 226 -93 340 -18 69 -47 177 -64 240 -43 159
-140 540 -146 570 -3 14 -10 43 -16 65 -5 22 -12 51 -15 65 -2 14 -8 41 -13
60 -5 19 -12 51 -15 70 -3 19 -12 67 -20 105 -8 39 -17 86 -20 105 -4 19 -13
73 -21 120 -9 47 -17 94 -19 105 -1 11 -5 40 -9 65 -4 25 -9 56 -11 70 -3 14
-7 41 -10 60 -3 19 -10 58 -15 85 -5 28 -11 68 -14 90 -7 53 -17 122 -21 143
-2 9 -4 27 -4 40 l-1 23 -647 -7 c-813 -9 -2104 -9 -2980 0 -643 7 -672 6
-671 -11z"/>
</g>
</svg>
